<?xml version="1.0" encoding="UTF-8"?>
<svg width="234px" height="42px" viewBox="0 0 234 42" version="1.1" xmlns="http://www.w3.org/2000/svg" xmlns:xlink="http://www.w3.org/1999/xlink">
    <!-- Generator: Sketch 56.3 (81716) - https://sketch.com -->
    <title>logo-orioro</title>
    <desc>Created with Sketch.</desc>
    <g id="logo-orioro" stroke="none" stroke-width="1" fill="none" fill-rule="evenodd">
        <g id="Group-7">
            <g id="Group-6" fill="#FFFFFF">
                <path d="M31.3856414,18.0902842 C31.3304253,14.5202842 30.6623097,11.3802316 29.382399,8.67012632 C28.1013839,5.96112632 26.2858764,3.86444211 23.9358764,2.38117895 C21.5847721,0.897915789 18.872554,0.156284211 15.7992223,0.156284211 C12.7258905,0.156284211 10.0092552,0.912284211 7.65042058,2.42207368 C5.29048167,3.93296842 3.46503524,6.09375789 2.17518562,8.90333684 C0.88644032,11.7140211 0.241515508,14.9413895 0.241515508,18.5843368 L0.241515508,22.7036526 C0.241515508,28.3802842 1.67713581,32.8886526 4.54948073,36.2298632 C7.42072133,39.5710737 11.1897768,41.2422316 15.8544384,41.2422316 C18.9454394,41.2422316 21.6720136,40.4917579 24.0319525,38.9897053 C26.3918914,37.4887579 28.207399,35.3467579 29.4784751,32.5637053 C30.7495512,29.7806526 31.3856414,26.5488632 31.3856414,22.8694421 L31.3856414,18.0902842 Z M28.0108294,22.7589158 C28.0108294,27.6474947 26.9407401,31.4606526 24.7994572,34.1972842 C22.6592787,36.9350211 19.6776057,38.3033368 15.8544384,38.3033368 C12.085383,38.3033368 9.10371006,36.9162316 6.90941964,34.1431263 C4.71402491,31.3689158 3.61632754,27.6110211 3.61632754,22.8694421 L3.61632754,18.6948632 C3.61632754,13.7874947 4.7184422,9.96549474 6.92267152,7.22886316 C9.12690085,4.49112632 12.085383,3.12281053 15.7992223,3.12281053 C19.5859469,3.12281053 22.5676198,4.48670526 24.7453454,7.21449474 C26.9219666,9.94338947 28.0108294,13.7145474 28.0108294,18.5301789 L28.0108294,22.7589158 Z M64.478898,40.6929158 L68.0734704,40.6929158 L68.0734704,40.3348105 L58.0848661,23.3093368 C60.6093492,22.5599684 62.6214262,21.2060211 64.1222016,19.2497053 C65.6218727,17.2922842 66.3717082,15.0342316 66.3717082,12.4744421 C66.3717082,8.76186316 65.1735174,5.87270526 62.7771358,3.80586316 C60.3807542,1.73902105 57.0512195,0.7056 52.7885315,0.7056 L39.8094196,0.7056 L39.8094196,40.6929158 L43.2118398,40.6929158 L43.2118398,24.0222316 L54.819382,24.0222316 L64.478898,40.6929158 Z M43.2118398,3.5616 L52.7344196,3.5616 C55.9722956,3.5616 58.4868398,4.34191579 60.2802608,5.90033684 C62.0725775,7.45875789 62.9692881,9.65049474 62.9692881,12.4744421 C62.9692881,15.0408632 62.1090202,17.1320211 60.3895888,18.7457053 C58.6701574,20.3593895 56.3930428,21.1662316 53.5571405,21.1662316 L43.2118398,21.1662316 L43.2118398,3.5616 Z M76.3050963,40.6929158 L79.6799084,40.6929158 L79.6799084,0.7056 L76.3050963,0.7056 L76.3050963,40.6929158 Z" id="Fill-2"></path>
                <path d="M157.801064,19.7324842 C157.782291,15.8972211 157.039081,12.4952211 155.570331,9.52758947 C154.101581,6.55995789 152.043123,4.27206316 149.398268,2.66501053 C146.751205,1.05795789 143.74082,0.254431579 140.364904,0.254431579 C136.952545,0.254431579 133.90903,1.0668 131.236567,2.69264211 C128.563,4.31848421 126.510063,6.62406316 125.077756,9.60937895 C123.644344,12.5958 122.928743,16.0431158 122.928743,19.9513263 L122.928743,22.1983263 C123.001628,25.9606421 123.772446,29.2941158 125.241196,32.1976421 C126.709946,35.1011684 128.758466,37.3338 131.386755,38.8955368 C134.01394,40.4572737 137.02543,41.2386947 140.419016,41.2386947 C143.813705,41.2386947 146.838447,40.4296421 149.49324,38.8137474 C152.149138,37.1978526 154.196553,34.8922737 155.638799,31.8959053 C157.079941,28.9006421 157.801064,25.4577474 157.801064,21.5683263 L157.801064,19.7324842 Z M148.028907,21.7319053 C148.011238,25.6047474 147.344227,28.5723789 146.031187,30.6359053 C144.717042,32.7005368 142.846318,33.7317474 140.419016,33.7317474 C137.864716,33.7317474 135.93988,32.6817474 134.643405,30.5817474 C133.348033,28.4806421 132.7009,25.4765368 132.7009,21.5683263 L132.727404,18.6371684 C133.001276,11.4043263 135.546741,7.78790526 140.364904,7.78790526 C142.828649,7.78790526 144.721459,8.8158 146.044438,10.8704842 C147.367418,12.9251684 148.028907,15.9336947 148.028907,19.8971684 L148.028907,21.7319053 Z M184.598574,40.6904842 L194.890867,40.6904842 L194.890867,40.2793263 L186.569791,24.1734316 C188.959547,23.0427474 190.716525,21.5639053 191.838517,19.7402211 C192.961614,17.9154316 193.52261,15.6164842 193.52261,12.8433789 C193.52261,9.01253684 192.189692,6.04711579 189.526064,3.94932632 C186.861332,1.85153684 183.166266,0.801536842 178.439763,0.801536842 L162.755059,0.801536842 L162.755059,40.6904842 L172.363776,40.6904842 L172.363776,26.5818 L177.564034,26.5818 L184.598574,40.6904842 Z M172.363776,8.19906316 L178.439763,8.19906316 C180.246436,8.19906316 181.614692,8.68869474 182.545637,9.66795789 C183.476581,10.6483263 183.941501,11.9978526 183.941501,13.7187474 C183.941501,15.4407474 183.480999,16.7814316 182.559993,17.7430105 C181.637883,18.7045895 180.264105,19.1842737 178.439763,19.1842737 L172.363776,19.1842737 L172.363776,8.19906316 Z M233.075054,19.7324842 C233.057385,15.8972211 232.313071,12.4952211 230.844321,9.52758947 C229.375571,6.55995789 227.318217,4.27206316 224.672258,2.66501053 C222.026299,1.05795789 219.01481,0.254431579 215.638893,0.254431579 C212.226534,0.254431579 209.184124,1.0668 206.510557,2.69264211 C203.83699,4.31848421 201.784053,6.62406316 200.351746,9.60937895 C198.918334,12.5958 198.202733,16.0431158 198.202733,19.9513263 L198.202733,22.1983263 C198.275618,25.9606421 199.046436,29.2941158 200.51629,32.1976421 C201.98504,35.1011684 204.03356,37.3338 206.660745,38.8955368 C209.289034,40.4572737 212.29942,41.2386947 215.694109,41.2386947 C219.087695,41.2386947 222.112437,40.4296421 224.768334,38.8137474 C227.423127,37.1978526 229.471647,34.8922737 230.912789,31.8959053 C232.353931,28.9006421 233.075054,25.4577474 233.075054,21.5683263 L233.075054,19.7324842 Z M223.304001,21.7319053 C223.285228,25.6047474 222.619321,28.5723789 221.305176,30.6359053 C219.991031,32.7005368 218.120308,33.7317474 215.694109,33.7317474 C213.138705,33.7317474 211.21387,32.6817474 209.918499,30.5817474 C208.622023,28.4806421 207.97489,25.4765368 207.97489,21.5683263 L208.002498,18.6371684 C208.27637,11.4043263 210.821835,7.78790526 215.638893,7.78790526 C218.102639,7.78790526 219.995449,8.8158 221.319532,10.8704842 C222.641407,12.9251684 223.304001,15.9336947 223.304001,19.8971684 L223.304001,21.7319053 Z" id="Fill-4"></path>
            </g>
            <polygon id="Fill-7" fill="#FF3700" points="97.0269502 18.4788947 107.387711 18.4788947 107.387711 9.59368421 97.0269502 9.59368421"></polygon>
            <polygon id="Fill-8" fill="#FF3700" points="97.0269502 31.8105789 107.387711 31.8105789 107.387711 22.9165263 97.0269502 22.9165263"></polygon>
        </g>
    </g>
</svg>